<svg xmlns="http://www.w3.org/2000/svg" width="800" height="600" data-software-used-string="@tscircuit/core@0.0.1930"><style></style><rect class="boundary" x="0" y="0" fill="#000" width="800" height="600" data-type="pcb_background" data-pcb-layer="global"/><rect class="pcb-boundary" fill="none" stroke="#fff" stroke-width="0.3" x="40" y="140" width="720" height="320" data-type="pcb_boundary" data-pcb-layer="global"/><path class="pcb-board" d="M 40 460 L 760 460 L 760 140 L 40 140 Z" fill="none" stroke="rgba(255, 255, 255, 0.5)" stroke-width="4" data-type="pcb_board" data-pcb-layer="board"/><circle class="pcb-pad" fill="rgb(200, 52, 52)" cx="200" cy="300" r="20" data-type="pcb_smtpad" data-pcb-layer="top" data-pad-name="TP1.pin1" data-pad-net-name="GND"/><circle class="pcb-pad" fill="rgb(200, 52, 52)" cx="600" cy="300" r="20" data-type="pcb_smtpad" data-pcb-layer="top" data-pad-name="TP2.pin1" data-pad-net-name="GND"/><path class="pcb-copper-pour pcb-copper-pour-brep" d="M 128 372 L 128 228 L 272 228 L 272 372 L 128 372 Z" fill="rgb(200, 52, 52)" fill-rule="evenodd" fill-opacity="0.5" data-type="pcb_copper_pour" data-pcb-layer="top"/><path class="pcb-copper-pour pcb-copper-pour-brep" d="M 528 372 L 528 228 L 672 228 L 672 372 L 528 372 Z" fill="rgb(200, 52, 52)" fill-rule="evenodd" fill-opacity="0.5" data-type="pcb_copper_pour" data-pcb-layer="top"/><text x="0" y="0" dx="0" dy="0" fill="#f2eda1" font-family="Arial, sans-serif" font-size="16" text-anchor="middle" dominant-baseline="central" transform="matrix(1,0,0,1,200,260)" class="pcb-silkscreen-text pcb-silkscreen-top" data-pcb-silkscreen-text-id="pcb_silkscreen_text_0" stroke="none" data-type="pcb_silkscreen_text" data-pcb-layer="top">TP1</text><text x="0" y="0" dx="0" dy="0" fill="#f2eda1" font-family="Arial, sans-serif" font-size="16" text-anchor="middle" dominant-baseline="central" transform="matrix(1,0,0,1,600,260)" class="pcb-silkscreen-text pcb-silkscreen-top" data-pcb-silkscreen-text-id="pcb_silkscreen_text_1" stroke="none" data-type="pcb_silkscreen_text" data-pcb-layer="top">TP2</text></svg>