<svg xmlns="http://www.w3.org/2000/svg" width="800" height="600"><style></style><rect class="boundary" x="0" y="0" fill="#000" width="800" height="600" data-type="pcb_background" data-pcb-layer="global"/><rect class="pcb-boundary" fill="none" stroke="#fff" stroke-width="0.3" x="100" y="75" width="600" height="450" data-type="pcb_boundary" data-pcb-layer="global"/><path class="pcb-board" d="M 175 525 L 625 525 L 700 300 L 625 75 L 175 75 L 100 300 Z" fill="none" stroke="rgba(255, 255, 255, 0.5)" stroke-width="7.5" data-type="pcb_board" data-pcb-layer="board"/><rect class="pcb-pad" fill="rgb(200, 52, 52)" x="340" y="352.5" width="45" height="45" data-type="pcb_smtpad" data-pcb-layer="top"/><rect class="pcb-pad" fill="rgb(200, 52, 52)" x="415" y="352.5" width="45" height="45" data-type="pcb_smtpad" data-pcb-layer="top"/><rect class="pcb-pad" fill="rgb(200, 52, 52)" x="557.5" y="352.5" width="45" height="45" data-type="pcb_smtpad" data-pcb-layer="top"/><rect class="pcb-pad" fill="rgb(200, 52, 52)" x="632.5" y="352.5" width="45" height="45" data-type="pcb_smtpad" data-pcb-layer="top"/><path class="pcb-silkscreen pcb-silkscreen-top" d="M 340 412.5 L 460 412.5 L 460 337.5 L 340 337.5" fill="none" stroke="#f2eda1" stroke-width="7.5" stroke-linecap="round" stroke-linejoin="round" data-pcb-component-id="pcb_component_2" data-pcb-silkscreen-path-id="pcb_silkscreen_path_2" data-type="pcb_silkscreen_path" data-pcb-layer="top"/><text x="0" y="0" dx="0" dy="0" fill="#f2eda1" font-family="Arial, sans-serif" font-size="30" text-anchor="middle" dominant-baseline="central" transform="matrix(1,0,0,1,400,315)" class="pcb-silkscreen-text pcb-silkscreen-top" data-pcb-silkscreen-text-id="pcb_component_2" stroke="none" data-type="pcb_silkscreen_text" data-pcb-layer="top">R2</text><path class="pcb-silkscreen pcb-silkscreen-top" d="M 565 412.5 L 685 412.5 L 685 337.5 L 565 337.5" fill="none" stroke="#f2eda1" stroke-width="7.5" stroke-linecap="round" stroke-linejoin="round" data-pcb-component-id="pcb_component_3" data-pcb-silkscreen-path-id="pcb_silkscreen_path_3" data-type="pcb_silkscreen_path" data-pcb-layer="top"/><text x="0" y="0" dx="0" dy="0" fill="#f2eda1" font-family="Arial, sans-serif" font-size="30" text-anchor="middle" dominant-baseline="central" transform="matrix(1,0,0,1,617.5,315)" class="pcb-silkscreen-text pcb-silkscreen-top" data-pcb-silkscreen-text-id="pcb_component_3" stroke="none" data-type="pcb_silkscreen_text" data-pcb-layer="top">C2</text><text x="0" y="0" dx="0" dy="0" fill="#f2eda1" font-family="Arial, sans-serif" font-size="30" text-anchor="middle" dominant-baseline="central" transform="matrix(1,0,0,1,617.5,375)" class="pcb-silkscreen-text pcb-silkscreen-top" data-pcb-silkscreen-text-id="pcb_component_3" stroke="none" data-type="pcb_silkscreen_text" data-pcb-layer="top">component outside</text></svg>