<svg xmlns="http://www.w3.org/2000/svg" width="800" height="600"><style></style><defs><pattern id="pcb-keepout-pattern" width="20" height="20" patternUnits="userSpaceOnUse"><line x1="-20" y1="0" x2="0" y2="20" stroke="#FF6B6B" stroke-width="1"/><line x1="-15" y1="0" x2="5" y2="20" stroke="#FF6B6B" stroke-width="1"/><line x1="-10" y1="0" x2="10" y2="20" stroke="#FF6B6B" stroke-width="1"/><line x1="-5" y1="0" x2="15" y2="20" stroke="#FF6B6B" stroke-width="1"/><line x1="0" y1="0" x2="20" y2="20" stroke="#FF6B6B" stroke-width="1"/><line x1="5" y1="0" x2="25" y2="20" stroke="#FF6B6B" stroke-width="1"/><line x1="10" y1="0" x2="30" y2="20" stroke="#FF6B6B" stroke-width="1"/><line x1="15" y1="0" x2="35" y2="20" stroke="#FF6B6B" stroke-width="1"/><line x1="20" y1="0" x2="40" y2="20" stroke="#FF6B6B" stroke-width="1"/></pattern></defs><rect class="boundary" x="0" y="0" fill="#000" width="800" height="600" data-type="pcb_background" data-pcb-layer="global"/><rect class="pcb-boundary" fill="none" stroke="#fff" stroke-width="0.3" x="185.71428571428572" y="85.71428571428572" width="428.5714285714285" height="428.5714285714285" data-type="pcb_boundary" data-pcb-layer="global"/><path class="pcb-board" d="M 185.71428571428572 514.2857142857142 L 614.2857142857142 514.2857142857142 L 614.2857142857142 85.71428571428572 L 185.71428571428572 85.71428571428572 Z" fill="none" stroke="rgba(255, 255, 255, 0.5)" stroke-width="8.571428571428571" data-type="pcb_board" data-pcb-layer="board"/><circle class="pcb-keepout pcb-keepout-circle pcb-keepout-background" data-type="pcb_keepout" data-pcb-layer="bottom" data-pcb-keepout-id="pcb_keepout_circle" stroke="none" cx="400" cy="300" r="85.71428571428571" fill="rgba(255, 107, 107, 0.2)"/><circle class="pcb-keepout pcb-keepout-circle pcb-keepout-pattern" fill="url(#pcb-keepout-pattern)" data-type="pcb_keepout" data-pcb-layer="bottom" data-pcb-keepout-id="pcb_keepout_circle" stroke="none" cx="400" cy="300" r="85.71428571428571"/><text x="0" y="0" dx="0" dy="0" fill="#f2eda1" font-family="Arial, sans-serif" font-size="25.71428571428571" text-anchor="middle" dominant-baseline="central" transform="matrix(1,0,0,1,400,420)" class="pcb-silkscreen-text pcb-silkscreen-top" data-pcb-silkscreen-text-id="pcb_silkscreen_text_via" stroke="none" data-type="pcb_silkscreen_text" data-pcb-layer="top">VIA ERROR</text><g data-type="pcb_via" data-pcb-layer="through"><circle class="pcb-hole-outer" fill="rgb(200, 52, 52)" cx="400" cy="300" r="21.428571428571427" data-type="pcb_via" data-pcb-layer="top"/><circle class="pcb-hole-inner" fill="#FF26E2" cx="400" cy="300" r="8.571428571428571" data-type="pcb_via" data-pcb-layer="drill"/></g></svg>